<mxfile modified="2021-03-15T17:46:09.143Z" host="app.diagrams.net" agent="5.0 (Windows NT 10.0; Win64; x64) AppleWebKit/537.36 (KHTML, like Gecko) Chrome/89.0.4389.86 Safari/537.36" etag="rhPo_NE6qo3Y9geAyHSw" version="14.4.8" type="github">
  <diagram id="Ht1M8jgEwFfnCIfOTk4-" name="Page-1">
    <mxGraphModel dx="1422" dy="924" grid="1" gridSize="10" guides="1" tooltips="1" connect="1" arrows="1" fold="1" page="1" pageScale="1" pageWidth="1169" pageHeight="827" math="0" shadow="0">
      <root>
        <mxCell id="0" />
        <mxCell id="1" parent="0" />
        <mxCell id="-QjtrjUzRDEMRZ5MF8oH-9" value="&lt;font style=&quot;font-size: 15px&quot;&gt;Yes&lt;/font&gt;" style="rounded=1;whiteSpace=wrap;html=1;fillColor=#007CBD;strokeColor=none;fontColor=#FFFFFF;fontStyle=1;fontSize=22;aspect=fixed;verticalAlign=middle;horizontal=1;" parent="1" vertex="1">
          <mxGeometry x="638" y="260" width="32.29" height="30.68" as="geometry" />
        </mxCell>
        <mxCell id="-QjtrjUzRDEMRZ5MF8oH-47" value="Access Secured Resource&amp;nbsp;" style="text;html=1;resizable=0;points=[];autosize=1;align=left;verticalAlign=top;spacingTop=-4;fontSize=30;fontStyle=1" parent="1" vertex="1">
          <mxGeometry x="40" y="10" width="400" height="40" as="geometry" />
        </mxCell>
        <mxCell id="SCVMTBWpLvtzJIhz15lM-1" value="" style="line;strokeWidth=2;html=1;fontSize=14;" parent="1" vertex="1">
          <mxGeometry x="40" y="50" width="1060" height="10" as="geometry" />
        </mxCell>
        <mxCell id="81qksRc2mRTRfwQt0PZu-1" value="&lt;font size=&quot;1&quot;&gt;&lt;b style=&quot;font-size: 14px&quot;&gt;USER&lt;/b&gt;&lt;/font&gt;" style="verticalLabelPosition=bottom;html=1;verticalAlign=top;align=center;strokeColor=none;fillColor=#00BEF2;shape=mxgraph.azure.user;fontSize=20;" vertex="1" parent="1">
          <mxGeometry x="52" y="301.67999999999984" width="47.5" height="50" as="geometry" />
        </mxCell>
        <mxCell id="81qksRc2mRTRfwQt0PZu-6" style="edgeStyle=orthogonalEdgeStyle;rounded=0;orthogonalLoop=1;jettySize=auto;html=1;strokeColor=#B3B3B3;endArrow=blockThin;endFill=1;strokeWidth=2;" edge="1" parent="1" source="81qksRc2mRTRfwQt0PZu-2" target="81qksRc2mRTRfwQt0PZu-5">
          <mxGeometry relative="1" as="geometry" />
        </mxCell>
        <mxCell id="81qksRc2mRTRfwQt0PZu-19" value="&lt;span style=&quot;font-size: 14px ; font-style: italic&quot;&gt;Trigger Lambda@Edge&lt;/span&gt;" style="edgeLabel;html=1;align=center;verticalAlign=bottom;resizable=0;points=[];spacing=3;" vertex="1" connectable="0" parent="81qksRc2mRTRfwQt0PZu-6">
          <mxGeometry x="-0.2088" relative="1" as="geometry">
            <mxPoint x="18" as="offset" />
          </mxGeometry>
        </mxCell>
        <mxCell id="81qksRc2mRTRfwQt0PZu-2" value="&lt;font style=&quot;font-size: 14px&quot;&gt;CLOUDFRONT&lt;/font&gt;" style="points=[[0,0,0],[0.25,0,0],[0.5,0,0],[0.75,0,0],[1,0,0],[0,1,0],[0.25,1,0],[0.5,1,0],[0.75,1,0],[1,1,0],[0,0.25,0],[0,0.5,0],[0,0.75,0],[1,0.25,0],[1,0.5,0],[1,0.75,0]];outlineConnect=0;fontColor=#232F3E;gradientColor=#945DF2;gradientDirection=north;fillColor=#5A30B5;strokeColor=#ffffff;dashed=0;verticalLabelPosition=bottom;verticalAlign=top;align=center;html=1;fontSize=12;fontStyle=1;aspect=fixed;shape=mxgraph.aws4.resourceIcon;resIcon=mxgraph.aws4.cloudfront;labelPosition=center;" vertex="1" parent="1">
          <mxGeometry x="300" y="287.67999999999984" width="78" height="78" as="geometry" />
        </mxCell>
        <mxCell id="81qksRc2mRTRfwQt0PZu-3" value="&lt;font size=&quot;1&quot;&gt;&lt;i style=&quot;font-size: 14px&quot;&gt;/secured/example.html&lt;/i&gt;&lt;/font&gt;" style="endArrow=classicThin;fontSize=15;strokeWidth=2;rounded=1;strokeColor=#B3B3B3;verticalAlign=bottom;startArrow=none;startFill=0;endFill=1;labelPosition=center;verticalLabelPosition=top;align=center;spacing=2;html=1;" edge="1" parent="1" target="81qksRc2mRTRfwQt0PZu-2">
          <mxGeometry x="0.05" width="50" height="50" relative="1" as="geometry">
            <mxPoint x="100" y="328" as="sourcePoint" />
            <mxPoint x="202" y="331.65999999999997" as="targetPoint" />
            <mxPoint as="offset" />
          </mxGeometry>
        </mxCell>
        <mxCell id="81qksRc2mRTRfwQt0PZu-12" value="&lt;font style=&quot;font-size: 14px&quot;&gt;&lt;i style=&quot;line-height: 100%&quot;&gt;&lt;span style=&quot;color: rgb(0, 0, 0); font-family: helvetica; font-weight: 400; letter-spacing: normal; text-indent: 0px; text-transform: none; word-spacing: 0px;&quot;&gt;Redirect to the&lt;br&gt;&lt;/span&gt;requested resource&lt;/i&gt;&lt;/font&gt;" style="edgeStyle=orthogonalEdgeStyle;rounded=0;orthogonalLoop=1;jettySize=auto;html=1;endArrow=blockThin;endFill=1;strokeColor=#B3B3B3;strokeWidth=2;verticalAlign=middle;align=center;horizontal=1;" edge="1" parent="1" source="81qksRc2mRTRfwQt0PZu-5" target="81qksRc2mRTRfwQt0PZu-10">
          <mxGeometry x="0.077" relative="1" as="geometry">
            <mxPoint as="offset" />
          </mxGeometry>
        </mxCell>
        <mxCell id="81qksRc2mRTRfwQt0PZu-17" style="edgeStyle=orthogonalEdgeStyle;rounded=0;orthogonalLoop=1;jettySize=auto;html=1;endArrow=blockThin;endFill=1;strokeColor=#B3B3B3;strokeWidth=2;" edge="1" parent="1" source="81qksRc2mRTRfwQt0PZu-5" target="81qksRc2mRTRfwQt0PZu-16">
          <mxGeometry relative="1" as="geometry" />
        </mxCell>
        <mxCell id="81qksRc2mRTRfwQt0PZu-18" value="&lt;i style=&quot;font-size: 14px&quot;&gt;Redirect to&lt;br&gt;Cognito login form&lt;/i&gt;" style="edgeLabel;html=1;align=center;verticalAlign=middle;resizable=0;points=[];" vertex="1" connectable="0" parent="81qksRc2mRTRfwQt0PZu-17">
          <mxGeometry x="0.3551" y="3" relative="1" as="geometry">
            <mxPoint y="-10.88" as="offset" />
          </mxGeometry>
        </mxCell>
        <mxCell id="81qksRc2mRTRfwQt0PZu-5" value="&lt;font color=&quot;#000000&quot; style=&quot;font-size: 14px ; line-height: 100%&quot;&gt;checkSession&lt;/font&gt;" style="outlineConnect=0;dashed=0;verticalLabelPosition=bottom;verticalAlign=top;align=center;html=1;shape=mxgraph.aws3.lambda_function;fillColor=#F58534;gradientColor=none;strokeColor=#000000;fontSize=15;fontColor=#B3B3B3;" vertex="1" parent="1">
          <mxGeometry x="589.5" y="290.68000000000006" width="69" height="72" as="geometry" />
        </mxCell>
        <mxCell id="81qksRc2mRTRfwQt0PZu-9" value="&lt;i style=&quot;font-size: 14px&quot;&gt;Verify if the token is provided &lt;br&gt;in the session cookie&lt;/i&gt;" style="strokeWidth=2;html=1;shape=mxgraph.flowchart.annotation_2;align=left;labelPosition=right;pointerEvents=1;fontSize=15;fontColor=#000000;" vertex="1" parent="1">
          <mxGeometry x="669.5" y="263.34000000000003" width="57" height="126.68" as="geometry" />
        </mxCell>
        <mxCell id="81qksRc2mRTRfwQt0PZu-10" value="&lt;b&gt;&lt;font style=&quot;font-size: 14px&quot;&gt;S3 BUCKET&lt;/font&gt;&lt;/b&gt;" style="pointerEvents=1;shadow=0;dashed=0;html=1;strokeColor=none;fillColor=#DF8C42;labelPosition=center;verticalLabelPosition=top;verticalAlign=bottom;align=center;outlineConnect=0;shape=mxgraph.veeam2.aws_s3;aspect=fixed;" vertex="1" parent="1">
          <mxGeometry x="585" y="100" width="78" height="78" as="geometry" />
        </mxCell>
        <mxCell id="81qksRc2mRTRfwQt0PZu-16" value="&lt;font color=&quot;#000000&quot; size=&quot;1&quot;&gt;&lt;b style=&quot;font-size: 14px&quot;&gt;COGNITO&lt;/b&gt;&lt;/font&gt;" style="outlineConnect=0;dashed=0;verticalLabelPosition=bottom;verticalAlign=top;align=center;html=1;shape=mxgraph.aws3.cognito;fillColor=#AD688B;gradientColor=none;strokeColor=#000000;fontSize=15;fontColor=#B3B3B3;spacing=0;" vertex="1" parent="1">
          <mxGeometry x="586.5" y="537.83" width="76.5" height="93" as="geometry" />
        </mxCell>
        <mxCell id="81qksRc2mRTRfwQt0PZu-20" value="&lt;font style=&quot;font-size: 15px&quot;&gt;No&lt;/font&gt;" style="rounded=1;whiteSpace=wrap;html=1;fillColor=#007CBD;strokeColor=none;fontColor=#FFFFFF;fontStyle=1;fontSize=22;aspect=fixed;verticalAlign=middle;horizontal=1;" vertex="1" parent="1">
          <mxGeometry x="638" y="398" width="32.29" height="30.68" as="geometry" />
        </mxCell>
      </root>
    </mxGraphModel>
  </diagram>
</mxfile>
